<svg xmlns="http://www.w3.org/2000/svg" version="1.1" xmlns:xlink="http://www.w3.org/1999/xlink" xmlns:svgjs="http://svgjs.dev/svgjs" width="1000" height="111" viewBox="0 0 1000 111"><g transform="matrix(1,0,0,1,-0.6060606060606233,-0.36815694619373573)"><svg viewBox="0 0 396 44" data-background-color="#219653" preserveAspectRatio="xMidYMid meet" height="111" width="1000" xmlns="http://www.w3.org/2000/svg" xmlns:xlink="http://www.w3.org/1999/xlink"><g id="tight-bounds" transform="matrix(1,0,0,1,0.2400000000000091,0.14593608677949987)"><svg viewBox="0 0 395.52 43.70812782644097" height="43.70812782644097" width="395.52"><g><svg viewBox="0 0 395.52 43.70812782644097" height="43.70812782644097" width="395.52"><g><svg viewBox="0 0 454.29965546666665 50.203750537634406" height="43.70812782644097" width="395.52"><g transform="matrix(1,0,0,1,0,6.938434408602152)"><svg viewBox="0 0 395.52 36.3268817204301" height="36.3268817204301" width="395.52"><g id="textblocktransform"><svg viewBox="0 0 395.52 36.3268817204301" height="36.3268817204301" width="395.52" id="textblock"><g><svg viewBox="0 0 395.52 36.3268817204301" height="36.3268817204301" width="395.52"><g transform="matrix(1,0,0,1,0,0)"><svg width="395.52" viewBox="4.199999809265137 -40.5 445.3699951171875 41" height="36.3268817204301" data-palette-color="#ffffff"><g class="wordmark-text-0" data-fill-palette-color="primary" id="text-0"><path d="M10.15-37.55L10.15-2.1Q10.15 0.3 7.15 0.3L7.15 0.3Q4.2 0.3 4.2-2.1L4.2-2.1 4.2-37.55Q4.2-39.95 7.15-39.95L7.15-39.95Q10.15-39.95 10.15-37.55L10.15-37.55ZM40.3-10.5L40.3-37.55Q40.3-39.95 43.25-39.95L43.25-39.95Q46.2-39.95 46.2-37.55L46.2-37.55 46.2-3.05Q46.2-1.3 44.35-0.5L44.35-0.5 44.4-0.5Q43.6-0.15 42.7 0.05 41.8 0.25 40.95 0.25L40.95 0.25Q40.3 0.25 39.6 0.13 38.9 0 38.27-0.28 37.65-0.55 37.12-1.03 36.6-1.5 36.3-2.2L36.3-2.2 25.45-29.25 24.1-29.1 24.1-2.1Q24.1 0.3 21.1 0.3L21.1 0.3Q18.15 0.3 18.15-2.1L18.15-2.1 18.15-36.55Q18.15-38.6 19.95-39.3L19.95-39.3Q21.6-39.95 23.45-39.95L23.45-39.95Q24.75-39.95 26.07-39.43 27.4-38.9 28.1-37.45L28.1-37.45 38.9-10.35 40.3-10.5ZM65.4 0.25L65.4 0.25Q64.4 0.25 63.27-0.08 62.15-0.4 61.65-1.3L61.65-1.3Q60.5-5.2 59.25-9.3 58-13.4 56.75-17.35L56.75-17.35Q55.35-22 53.75-27.03 52.15-32.05 50.75-36.65L50.75-36.65Q50.45-37.75 51.1-38.58 51.75-39.4 52.95-39.8L52.95-39.8Q53.7-40 54.25-40L54.25-40Q55.95-40 56.45-38.3L56.45-38.3 60.15-26.45Q60.65-24.65 61.32-22.5 62-20.35 62.7-18.1 63.4-15.85 64.09-13.63 64.8-11.4 65.4-9.5L65.4-9.5Q66.34-12.65 67.47-16.32 68.59-20 69.77-23.8 70.95-27.6 72.09-31.33 73.25-35.05 74.25-38.3L74.25-38.3Q74.8-40 76.4-40L76.4-40Q77-40 77.8-39.8L77.8-39.8Q80.55-39.05 79.95-36.65L79.95-36.65Q77.25-27.9 74.5-19 71.75-10.1 69.05-1.3L69.05-1.3Q68.65-0.3 67.57-0.03 66.5 0.25 65.4 0.25ZM106.19 0.05L87.89 0.05Q86.04 0.05 85.39-0.9 84.74-1.85 84.74-3L84.74-3 84.74-36.7Q84.74-37.85 85.39-38.78 86.04-39.7 87.89-39.7L87.89-39.7 105.29-39.7Q107.14-39.7 107.24-37.2L107.24-37.2Q107.34-34.65 105.29-34.65L105.29-34.65 90.64-34.65 90.64-5 106.19-5Q108.04-5 108.09-2.55L108.09-2.55Q108.19 0.05 106.19 0.05L106.19 0.05ZM103.44-20.65L103.44-20.65Q103.44-18.9 102.22-17.7 100.99-16.5 99.24-16.5L99.24-16.5Q97.54-16.5 96.34-17.7 95.14-18.9 95.14-20.65L95.14-20.65Q95.14-22.4 96.34-23.6 97.54-24.8 99.24-24.8L99.24-24.8Q100.99-24.8 102.22-23.6 103.44-22.4 103.44-20.65ZM135.64-10.5L135.64-37.55Q135.64-39.95 138.59-39.95L138.59-39.95Q141.54-39.95 141.54-37.55L141.54-37.55 141.54-3.05Q141.54-1.3 139.69-0.5L139.69-0.5 139.74-0.5Q138.94-0.15 138.04 0.05 137.14 0.25 136.29 0.25L136.29 0.25Q135.64 0.25 134.94 0.13 134.24 0 133.62-0.28 132.99-0.55 132.47-1.03 131.94-1.5 131.64-2.2L131.64-2.2 120.79-29.25 119.44-29.1 119.44-2.1Q119.44 0.3 116.44 0.3L116.44 0.3Q113.49 0.3 113.49-2.1L113.49-2.1 113.49-36.55Q113.49-38.6 115.29-39.3L115.29-39.3Q116.94-39.95 118.79-39.95L118.79-39.95Q120.09-39.95 121.42-39.43 122.74-38.9 123.44-37.45L123.44-37.45 134.24-10.35 135.64-10.5ZM162.34-34.65L162.34-2Q162.34 0.4 159.34 0.4L159.34 0.4Q156.39 0.4 156.39-2L156.39-2 156.39-34.65 147.64-34.65Q145.84-34.65 145.74-37.2L145.74-37.2Q145.74-39.7 147.64-39.7L147.64-39.7 171.09-39.7Q172.99-39.7 172.89-37.2L172.89-37.2Q172.89-34.65 171.09-34.65L171.09-34.65 162.34-34.65ZM185.34-39.7L196.24-39.7Q197.54-39.7 198.94-39.15 200.34-38.6 201.64-37.75L201.64-37.75 201.59-37.75Q202.89-36.8 203.59-35.27 204.29-33.75 204.29-31.75L204.29-31.75 204.29-8Q204.29-3.95 201.59-1.95L201.59-1.95Q200.29-1 198.91-0.48 197.54 0.05 196.24 0.05L196.24 0.05 185.34 0.05Q184.03 0.05 182.66-0.48 181.28-1 179.99-1.95L179.99-1.95Q178.69-2.95 177.99-4.42 177.28-5.9 177.28-8L177.28-8 177.28-31.75Q177.28-33.75 177.99-35.27 178.69-36.8 179.99-37.75L179.99-37.75 179.94-37.75Q181.24-38.6 182.64-39.15 184.03-39.7 185.34-39.7L185.34-39.7ZM186.59-5L194.99-5Q196.84-5 197.59-6.05 198.34-7.1 198.34-8.4L198.34-8.4 198.34-31.3Q198.34-32.55 197.59-33.6 196.84-34.65 194.99-34.65L194.99-34.65 186.59-34.65Q184.74-34.65 183.99-33.6 183.24-32.55 183.24-31.3L183.24-31.3 183.24-8.4Q183.24-7.1 183.99-6.05 184.74-5 186.59-5L186.59-5ZM235.43-0.6L225.98-16.45 222.13-16.45Q221.28-16.45 220.81-17.13 220.33-17.8 220.33-18.95L220.33-18.95Q220.33-21.5 222.43-21.5L222.43-21.5 228.28-21.5Q230.13-21.5 230.88-22.55 231.63-23.6 231.63-24.85L231.63-24.85 231.63-31.3Q231.63-32.55 230.88-33.6 230.13-34.65 228.28-34.65L228.28-34.65 217.73-34.65 217.73-2.05Q217.73 0.35 214.78 0.35L214.78 0.35Q211.83 0.35 211.83-2.05L211.83-2.05 211.83-36.7Q211.83-38.5 212.76-39.1 213.68-39.7 214.98-39.7L214.98-39.7 229.53-39.7Q230.83-39.7 232.23-39.15 233.63-38.6 234.93-37.75L234.93-37.75 234.88-37.75Q236.18-36.8 236.88-35.27 237.58-33.75 237.58-31.75L237.58-31.75 237.58-24.45Q237.58-20.4 234.88-18.4L234.88-18.4Q234.33-18 233.71-17.65 233.08-17.3 232.43-16.95L232.43-16.95 240.43-3.75Q240.58-3.5 240.73-3.1 240.88-2.7 240.88-2.45L240.88-2.45Q240.88-1.25 239.18-0.15L239.18-0.15 239.18-0.2Q238.03 0.5 237.23 0.5L237.23 0.5Q236.08 0.5 235.38-0.65L235.38-0.65 235.43-0.6ZM260.13-15.15L260.13-2Q260.13 0.4 257.18 0.4L257.18 0.4Q254.23 0.4 254.23-2L254.23-2 254.23-15.3 243.03-36.6Q242.73-37.25 242.73-37.95L242.73-37.95Q242.73-39.4 244.43-40.1L244.43-40.1 244.38-40.1Q245.48-40.5 246.13-40.5L246.13-40.5Q247.43-40.5 248.13-39.2L248.13-39.2 257.23-22.1Q258.23-24 259.38-26.18 260.53-28.35 261.71-30.6 262.88-32.85 264.03-35.05 265.18-37.25 266.23-39.2L266.23-39.2Q266.63-39.8 267.11-40.15 267.58-40.5 268.28-40.5L268.28-40.5Q268.98-40.5 269.93-40.1L269.93-40.1 269.88-40.1Q271.63-39.35 271.63-37.9L271.63-37.9Q271.63-37.6 271.58-37.27 271.53-36.95 271.33-36.6L271.33-36.6Q270.88-35.7 270.21-34.4 269.53-33.1 268.31-30.78 267.08-28.45 265.13-24.73 263.18-21 260.13-15.15L260.13-15.15Z" fill="#ffffff" data-fill-palette-color="primary"></path><path d="M303.98-34.65L303.98-2Q303.98 0.4 300.98 0.4L300.98 0.4Q298.03 0.4 298.03-2L298.03-2 298.03-34.65 289.28-34.65Q287.48-34.65 287.38-37.2L287.38-37.2Q287.38-39.7 289.28-39.7L289.28-39.7 312.73-39.7Q314.63-39.7 314.53-37.2L314.53-37.2Q314.53-34.65 312.73-34.65L312.73-34.65 303.98-34.65ZM342.58-0.6L333.13-16.45 329.28-16.45Q328.43-16.45 327.95-17.13 327.48-17.8 327.48-18.95L327.48-18.95Q327.48-21.5 329.58-21.5L329.58-21.5 335.43-21.5Q337.28-21.5 338.03-22.55 338.78-23.6 338.78-24.85L338.78-24.85 338.78-31.3Q338.78-32.55 338.03-33.6 337.28-34.65 335.43-34.65L335.43-34.65 324.88-34.65 324.88-2.05Q324.88 0.35 321.93 0.35L321.93 0.35Q318.98 0.35 318.98-2.05L318.98-2.05 318.98-36.7Q318.98-38.5 319.9-39.1 320.83-39.7 322.13-39.7L322.13-39.7 336.68-39.7Q337.97-39.7 339.38-39.15 340.78-38.6 342.08-37.75L342.08-37.75 342.03-37.75Q343.33-36.8 344.03-35.27 344.72-33.75 344.72-31.75L344.72-31.75 344.72-24.45Q344.72-20.4 342.03-18.4L342.03-18.4Q341.47-18 340.85-17.65 340.22-17.3 339.58-16.95L339.58-16.95 347.58-3.75Q347.72-3.5 347.88-3.1 348.03-2.7 348.03-2.45L348.03-2.45Q348.03-1.25 346.33-0.15L346.33-0.15 346.33-0.2Q345.18 0.5 344.38 0.5L344.38 0.5Q343.22 0.5 342.53-0.65L342.53-0.65 342.58-0.6ZM376.82-1.2L365.82-34.8 354.87-1.2 354.87-1.25Q354.57-0.5 354.05-0.03 353.52 0.45 352.77 0.45L352.77 0.45Q352.37 0.45 352 0.38 351.62 0.3 351.22 0.2L351.22 0.2 351.27 0.2Q348.42-0.7 349.17-3L349.17-3 360.57-37.65Q360.82-38.45 361.45-39 362.07-39.55 362.92-39.65L362.92-39.65Q363.77-39.8 364.57-39.88 365.37-39.95 365.82-39.95L365.82-39.95Q366.27-39.95 367.07-39.88 367.87-39.8 368.72-39.7L368.72-39.7Q369.42-39.6 370.1-38.95 370.77-38.3 371.12-37.65L371.12-37.65Q373.92-29.05 376.8-20.33 379.67-11.6 382.47-3L382.47-3Q383.17-0.7 380.37 0.2L380.37 0.2Q379.97 0.3 379.65 0.38 379.32 0.45 378.92 0.45L378.92 0.45Q378.22 0.45 377.65-0.03 377.07-0.5 376.82-1.25L376.82-1.25 376.82-1.2ZM369.57-12L369.57-12Q369.57-10.4 368.45-9.28 367.32-8.15 365.72-8.15L365.72-8.15Q364.12-8.15 363.02-9.28 361.92-10.4 361.92-12L361.92-12Q361.92-13.6 363.02-14.73 364.12-15.85 365.72-15.85L365.72-15.85Q367.32-15.85 368.45-14.73 369.57-13.6 369.57-12ZM413.92-11.3L413.92-8Q413.92-3.95 411.22-1.95L411.22-1.95Q409.92-1 408.55-0.48 407.17 0.05 405.87 0.05L405.87 0.05 394.97 0.05Q393.67 0.05 392.3-0.48 390.92-1 389.62-1.95L389.62-1.95Q388.32-2.95 387.62-4.42 386.92-5.9 386.92-8L386.92-8 386.92-31.75Q386.92-33.75 387.62-35.27 388.32-36.8 389.62-37.75L389.62-37.75 389.57-37.75Q390.87-38.6 392.27-39.15 393.67-39.7 394.97-39.7L394.97-39.7 405.87-39.7Q407.17-39.7 408.57-39.15 409.97-38.6 411.27-37.75L411.27-37.75 411.22-37.75Q412.52-36.8 413.22-35.27 413.92-33.75 413.92-31.75L413.92-31.75 413.92-28.3Q413.92-25.9 410.92-25.9L410.92-25.9Q407.97-25.9 407.97-28.3L407.97-28.3 407.97-31.3Q407.97-32.55 407.22-33.6 406.47-34.65 404.62-34.65L404.62-34.65 396.22-34.65Q394.37-34.65 393.62-33.6 392.87-32.55 392.87-31.3L392.87-31.3 392.87-8.4Q392.87-7.1 393.62-6.05 394.37-5 396.22-5L396.22-5 404.62-5Q406.47-5 407.22-6.05 407.97-7.1 407.97-8.4L407.97-8.4 407.97-11.3Q407.97-13.65 410.92-13.65L410.92-13.65Q413.92-13.65 413.92-11.3L413.92-11.3ZM427.07-21.2L442.32-39.1Q443.07-40 444.02-40L444.02-40Q445.07-40 446.17-39.05L446.17-39.05Q446.72-38.5 447.09-37.95 447.47-37.4 447.47-36.85L447.47-36.85Q447.47-35.95 446.82-35.3L446.82-35.3 440.12-27.5 427.07-12.15 427.07-2.1Q427.07 0.3 424.07 0.3L424.07 0.3Q421.12 0.3 421.12-2.1L421.12-2.1 421.12-37.55Q421.12-39.95 424.07-39.95L424.07-39.95Q427.07-39.95 427.07-37.55L427.07-37.55 427.07-21.2ZM444.72-1.5L435.22-15.35Q434.72-16.05 434.72-17.05L434.72-17.05Q434.72-18.55 435.97-19.45L435.97-19.45 435.92-19.45Q436.92-20.15 437.92-20.15L437.92-20.15Q438.87-20.15 439.52-19.05L439.52-19.05 449.17-4.95 449.12-5Q449.57-4.3 449.57-3.5L449.57-3.5Q449.57-2.2 448.27-1.2L448.27-1.2 448.32-1.2Q447.77-0.85 447.27-0.65 446.77-0.45 446.37-0.45L446.37-0.45Q445.97-0.45 445.54-0.75 445.12-1.05 444.72-1.5L444.72-1.5Z" fill="#f2994a" data-fill-palette-color="accent"></path></g></svg></g></svg></g></svg></g></svg></g><g transform="matrix(1,0,0,1,404.09590492903226,0)"><svg viewBox="0 0 50.203750537634406 50.203750537634406" height="50.203750537634406" width="50.203750537634406"><g data-palette-color="#f2994a"><rect width="13.722358480286738" height="50.203750537634406" fill="#f2994a" stroke="transparent" data-fill-palette-color="accent" x="0" fill-opacity="1"></rect><rect width="13.722358480286738" height="50.203750537634406" fill="#f2994a" stroke="transparent" data-fill-palette-color="accent" x="16.734583512544802" fill-opacity="0.75"></rect><rect width="13.722358480286738" height="50.203750537634406" fill="#f2994a" stroke="transparent" data-fill-palette-color="accent" x="33.469167025089604" fill-opacity="0.5"></rect></g></svg></g></svg></g></svg></g><defs></defs></svg><rect width="395.52" height="43.70812782644097" fill="none" stroke="none" visibility="hidden"></rect></g></svg></g></svg>