<svg width="60" height="60" viewBox="0 0 60 60" fill="none" xmlns="http://www.w3.org/2000/svg">
<rect width="60" height="60" rx="5" fill="#219653"/>
<path d="M17.962 50.732C17.962 52.46 16.882 53.324 14.722 53.324C12.598 53.324 11.536 52.46 11.536 50.732V12.446C11.536 10.718 12.598 9.854 14.722 9.854C16.882 9.854 17.962 10.718 17.962 12.446V50.732Z" fill="white"/>
<path d="M41.031 50.84C41.031 52.568 39.951 53.432 37.791 53.432C35.667 53.432 34.605 52.568 34.605 50.84V15.578H25.155C23.859 15.578 23.175 14.66 23.103 12.824C23.103 11.024 23.787 10.124 25.155 10.124H50.481C51.849 10.124 52.497 11.024 52.425 12.824C52.425 14.66 51.777 15.578 50.481 15.578H41.031V50.84Z" fill="#F2994A"/>
</svg>
